Coordinates
version=1
nRows=18
nColumns=22
inDegrees=yes

Units are S.I. units (second, meters, Newtons, ...)
If the header above contains a line with 'inDegrees', this indicates whether rotational values are in degrees (yes) or radians (no).

endheader
time	pelvis_tilt	pelvis_list	pelvis_rotation	pelvis_tx	pelvis_ty	pelvis_tz	hip_flexion_r	hip_adduction_r	hip_rotation_r	knee_angle_r	ankle_angle_r	subtalar_angle_r	hip_flexion_l	hip_adduction_l	hip_rotation_l	knee_angle_l	ankle_angle_l	subtalar_angle_l	lumbar_extension	lumbar_bending	lumbar_rotation
      2.58000000	     -1.20265528	     -2.41030151	     -0.09920135	     -0.84250786	      0.97694828	      0.00954270	     29.12778803	     -0.17600408	     -9.68359534	    -21.77777556	     -1.02010249	      6.65034117	    -11.76055535	     -3.02097557	     -5.20878512	    -20.46795443	     16.65128694	      4.09897967	     -6.58902791	      1.51545735	     -4.56596327
      2.59000000	     -1.25840507	     -2.82544152	     -0.05195329	     -0.83144060	      0.97808074	      0.01180715	     29.01174842	      0.28530662	     -9.82901252	    -22.67958761	     -1.00509269	      6.22125445	    -11.64294303	     -3.65753962	     -5.16734718	    -21.70427349	     15.42051817	      4.68080377	     -6.39704220	      2.02456962	     -4.56347036
      2.60000000	     -1.29522598	     -3.24275212	     -0.03328533	     -0.82034900	      0.97942196	      0.01423202	     28.78394709	      0.80479354	     -9.87578124	    -23.42031414	     -0.85259291	      5.78679589	    -11.43699734	     -4.31038414	     -5.26931024	    -23.10002367	     14.03393494	      5.19557856	     -6.21115768	      2.51811919	     -4.55729343
      2.61000000	     -1.32797543	     -3.65890641	     -0.02776078	     -0.80925418	      0.98092283	      0.01677034	     28.45575608	      1.36685863	     -9.84346946	    -23.99213722	     -0.58676088	      5.42081635	    -11.12045335	     -4.98399614	     -5.51347818	    -24.65397466	     12.48110257	      5.57798601	     -6.01435929	      2.99677770	     -4.56029343
      2.62000000	     -1.33798623	     -4.04388857	     -0.02806240	     -0.79818468	      0.98256845	      0.01939602	     28.02202569	      1.92476153	     -9.79635166	    -24.42324767	     -0.19978102	      5.03118394	    -10.71449320	     -5.65193867	     -5.88004318	    -26.35172378	     10.76903536	      5.91288581	     -5.83271192	      3.42247633	     -4.56191963
      2.63000000	     -1.34070863	     -4.40008312	     -0.01932547	     -0.78719334	      0.98430991	      0.02206645	     27.50436611	      2.46597846	     -9.75461102	    -24.71928307	      0.28193368	      4.70008960	    -10.19563684	     -6.32639815	     -6.35470235	    -28.19156848	      8.91964835	      6.13857796	     -5.65319242	      3.80164237	     -4.58032424
      2.64000000	     -1.34750092	     -4.73538015	      0.00088053	     -0.77632933	      0.98610626	      0.02476233	     26.92221525	      2.99109272	     -9.72651539	    -24.88751519	      0.82811140	      4.47146159	     -9.55350775	     -7.02017698	     -6.91319370	    -30.16325090	      6.96708308	      6.25776087	     -5.47134880	      4.14564455	     -4.61029906
      2.65000000	     -1.36353050	     -5.06380255	      0.04106377	     -0.76561911	      0.98791824	      0.02747269	     26.28073205	      3.50482534	     -9.75187339	    -24.92083256	      1.40205542	      4.30753834	     -8.78237471	     -7.76384604	     -7.57100953	    -32.26026496	      5.01164764	      6.26996150	     -5.28397505	      4.46666102	     -4.65434928
      2.66000000	     -1.38927687	     -5.39409455	      0.09674255	     -0.75510972	      0.98971914	      0.03019175	     25.60205693	      4.01764900	     -9.80654394	    -24.85300324	      1.97969995	      4.23536034	     -7.89519476	     -8.55805808	     -8.26330384	    -34.45346415	      3.11313307	      6.21916019	     -5.10173186	      4.77652421	     -4.70248536
      2.67000000	     -1.42065814	     -5.72969577	      0.16983141	     -0.74480809	      0.99149164	      0.03289052	     24.88615954	      4.53145972	     -9.89378867	    -24.68810641	      2.54881677	      4.22896518	     -6.90572882	     -9.40328949	     -8.96496805	    -36.71860455	      1.38178366	      6.13143350	     -4.93125906	      5.08115591	     -4.74416710
      2.68000000	     -1.45292172	     -6.08112508	      0.25833666	     -0.73474322	      0.99321537	      0.03555626	     24.13914454	      5.05967326	    -10.00155826	    -24.43573167	      3.08450359	      4.26776253	     -5.82555123	    -10.29857106	     -9.62758813	    -39.03473769	     -0.08447079	      6.02729894	     -4.78572646	      5.39306974	     -4.76369399
      2.69000000	     -1.47793066	     -6.42469735	      0.36486639	     -0.72488250	      0.99489103	      0.03815917	     23.35871025	      5.57777112	    -10.12323036	    -24.11103737	      3.60692644	      4.33532488	     -4.68018027	    -11.21111739	    -10.24604268	    -41.35543456	     -1.20590810	      5.88847261	     -4.66921173	      5.68745009	     -4.79420035
      2.70000000	     -1.48858713	     -6.76769940	      0.48884877	     -0.71524803	      0.99651667	      0.04065553	     22.55284174	      6.09365957	    -10.24590431	    -23.73511137	      4.09723855	      4.41613423	     -3.48076744	    -12.11668587	    -10.74359610	    -43.65091297	     -1.96640425	      5.71379004	     -4.59477076	      5.97644370	     -4.78116360
      2.71000000	     -1.48640442	     -7.07562608	      0.63318222	     -0.70581886	      0.99809631	      0.04301561	     21.72480485	      6.57343351	    -10.34443140	    -23.31392448	      4.57941952	      4.51051996	     -2.23839216	    -12.96185795	    -11.11665086	    -45.87284934	     -2.35588238	      5.43828272	     -4.55487806	      6.22531326	     -4.77721388
      2.72000000	     -1.45163544	     -7.34672016	      0.78621980	     -0.69658781	      0.99965587	      0.04522266	     20.87400833	      7.00992722	    -10.45634940	    -22.88638962	      5.04234362	      4.58919675	     -0.98612159	    -13.72404765	    -11.36571485	    -47.98531571	     -2.43191791	      5.12134209	     -4.57427289	      6.43390403	     -4.71860509
      2.73000000	     -1.40229561	     -7.55989864	      0.95048141	     -0.68754318	      1.00119099	      0.04728270	     20.00792822	      7.38835482	    -10.53695862	    -22.43428799	      5.50287743	      4.67009109	      0.28675095	    -14.36288975	    -11.48150294	    -49.95281525	     -2.23570862	      4.70265609	     -4.62465026	      6.57759235	     -4.65005835
      2.74000000	     -1.35210839	     -7.70177334	      1.12102675	     -0.67867048	      1.00271330	      0.04919115	     19.13130857	      7.69598130	    -10.56477241	    -21.94131206	      5.92457793	      4.77272040	      1.58189967	    -14.85110837	    -11.47902741	    -51.74235368	     -1.85844201	      4.17101600	     -4.68494069	      6.64377202	     -4.56974600
      2.75000000	     -1.27660564	     -7.78156075	      1.27239771	     -0.66995523	      1.00423433	      0.05100401	     18.23777374	      7.94002342	    -10.58366095	    -21.45590358	      6.37178108	      4.86822120	      2.85301988	    -15.20372679	    -11.41877204	    -53.33880441	     -1.33148418	      3.67604134	     -4.78620746	      6.63978674	     -4.43136572
